<?xml version="1.0" encoding="utf-8"?>
<!-- Generator: Adobe Illustrator 16.0.0, SVG Export Plug-In . SVG Version: 6.00 Build 0)  -->
<!DOCTYPE svg PUBLIC "-//W3C//DTD SVG 1.1//EN" "http://www.w3.org/Graphics/SVG/1.1/DTD/svg11.dtd">
<svg version="1.1" xmlns="http://www.w3.org/2000/svg" xmlns:xlink="http://www.w3.org/1999/xlink" x="0px" y="0px" width="500px"
	 height="500px" viewBox="0 0 500 500" enable-background="new 0 0 500 500" xml:space="preserve">
<g id="Background_Complete">
	<g>
		<g>
			<rect y="382.398" fill="#EBEBEB" width="500" height="0.25"/>
			<path fill="#EBEBEB" d="M237.014,337.8H43.915c-3.147,0-5.708-2.561-5.708-5.708V60.66c0-3.146,2.561-5.708,5.708-5.708h193.099
				c3.146,0,5.707,2.562,5.707,5.708v271.432C242.721,335.239,240.16,337.8,237.014,337.8z M43.915,55.202
				c-3.01,0-5.458,2.448-5.458,5.458v271.432c0,3.01,2.448,5.458,5.458,5.458h193.099c3.009,0,5.457-2.448,5.457-5.458V60.66
				c0-3.01-2.448-5.458-5.457-5.458H43.915z"/>
			<path fill="#EBEBEB" d="M453.311,337.8H260.212c-3.146,0-5.707-2.561-5.707-5.708V60.66c0-3.146,2.561-5.708,5.707-5.708h193.099
				c3.147,0,5.708,2.562,5.708,5.708v271.432C459.019,335.239,456.458,337.8,453.311,337.8z M260.212,55.202
				c-3.009,0-5.457,2.448-5.457,5.458v271.432c0,3.01,2.448,5.458,5.457,5.458h193.099c3.01,0,5.458-2.448,5.458-5.458V60.66
				c0-3.01-2.448-5.458-5.458-5.458H260.212z"/>
		</g>
		<g>
			<rect x="423.904" y="398.494" fill="#EBEBEB" width="25.998" height="0.25"/>
			<rect x="311" y="401.208" fill="#EBEBEB" width="45.027" height="0.25"/>
			<rect x="362.111" y="389.208" fill="#EBEBEB" width="60.792" height="0.25"/>
			<rect x="52.459" y="390.889" fill="#EBEBEB" width="19.234" height="0.25"/>
			<rect x="80.597" y="390.889" fill="#EBEBEB" width="55.292" height="0.25"/>
			<rect x="169.667" y="395.11" fill="#EBEBEB" width="74.467" height="0.25"/>
		</g>
	</g>
	<g>
		<g>
			<rect x="46.238" y="309.023" fill="#FAFAFA" width="21.202" height="73.375"/>
			<rect x="64.805" y="325.118" fill="#FAFAFA" width="21.202" height="57.28"/>
			<rect x="78.362" y="277.915" fill="#FAFAFA" width="21.202" height="104.483"/>
			<rect x="92.452" y="193.203" fill="#FAFAFA" width="21.201" height="189.195"/>
			<rect x="109.201" y="207.93" fill="#FAFAFA" width="56.893" height="174.469"/>
		</g>
		<g>
			<rect x="387.273" y="332.179" fill="#FAFAFA" width="24.223" height="50.22"/>
			<rect x="366.061" y="343.194" fill="#FAFAFA" width="24.224" height="39.204"/>
			<rect x="350.571" y="310.888" fill="#FAFAFA" width="24.224" height="71.511"/>
			<rect x="334.474" y="252.909" fill="#FAFAFA" width="24.223" height="129.489"/>
		</g>
		<g>
			<g>
				<rect x="273.168" y="224.213" fill="#F0F0F0" width="74.332" height="158.186"/>
				<g>
					<rect x="336.881" y="230.843" fill="#F5F5F5" width="3.54" height="19.25"/>
					<rect x="336.881" y="260.945" fill="#F5F5F5" width="3.54" height="19.251"/>
					<rect x="336.881" y="291.049" fill="#F5F5F5" width="3.54" height="19.25"/>
					<rect x="336.881" y="321.152" fill="#F5F5F5" width="3.54" height="19.25"/>
					<rect x="336.881" y="351.256" fill="#F5F5F5" width="3.54" height="19.25"/>
					<rect x="324.339" y="230.843" fill="#F5F5F5" width="3.54" height="19.25"/>
					<rect x="324.339" y="260.945" fill="#F5F5F5" width="3.54" height="19.251"/>
					<rect x="324.339" y="291.049" fill="#F5F5F5" width="3.54" height="19.25"/>
					<rect x="324.339" y="321.152" fill="#F5F5F5" width="3.54" height="19.25"/>
					<rect x="324.339" y="351.256" fill="#F5F5F5" width="3.54" height="19.25"/>
					<rect x="311.797" y="230.843" fill="#F5F5F5" width="3.54" height="19.25"/>
					<rect x="311.797" y="260.945" fill="#F5F5F5" width="3.54" height="19.251"/>
					<rect x="311.797" y="291.049" fill="#F5F5F5" width="3.54" height="19.25"/>
					<rect x="311.797" y="321.152" fill="#F5F5F5" width="3.54" height="19.25"/>
					<rect x="311.797" y="351.256" fill="#F5F5F5" width="3.54" height="19.25"/>
					<rect x="299.255" y="230.843" fill="#F5F5F5" width="3.54" height="19.25"/>
					<rect x="299.255" y="260.945" fill="#F5F5F5" width="3.54" height="19.251"/>
					<rect x="299.255" y="291.049" fill="#F5F5F5" width="3.54" height="19.25"/>
					<rect x="299.255" y="321.152" fill="#F5F5F5" width="3.54" height="19.25"/>
					<rect x="299.255" y="351.256" fill="#F5F5F5" width="3.54" height="19.25"/>
					<rect x="286.713" y="230.843" fill="#F5F5F5" width="3.54" height="19.25"/>
					<rect x="286.713" y="260.945" fill="#F5F5F5" width="3.54" height="19.251"/>
					<rect x="286.713" y="291.049" fill="#F5F5F5" width="3.54" height="19.25"/>
					<rect x="286.713" y="321.152" fill="#F5F5F5" width="3.54" height="19.25"/>
					<rect x="286.713" y="351.256" fill="#F5F5F5" width="3.54" height="19.25"/>
				</g>
				<polygon opacity="0.5" fill="#E0E0E0" points="273.168,224.213 288.483,224.213 295.143,382.398 273.168,382.398 				"/>
			</g>
			<g>
				<polygon fill="#F0F0F0" points="236.628,163.091 280.709,171.433 280.709,382.398 236.628,382.398 				"/>
				<rect x="201.363" y="163.091" fill="#E6E6E6" width="35.265" height="219.308"/>
				<rect x="201.363" y="181.262" fill="#E0E0E0" width="79.346" height="1.123"/>
				<rect x="201.363" y="193.203" fill="#E0E0E0" width="79.346" height="1.123"/>
				<rect x="201.363" y="205.145" fill="#E0E0E0" width="79.346" height="1.123"/>
				<rect x="201.363" y="217.086" fill="#E0E0E0" width="79.346" height="1.123"/>
				<rect x="201.363" y="229.026" fill="#E0E0E0" width="79.346" height="1.124"/>
				<rect x="201.363" y="240.968" fill="#E0E0E0" width="79.346" height="1.124"/>
				<rect x="201.363" y="252.909" fill="#E0E0E0" width="79.346" height="1.123"/>
				<rect x="201.363" y="264.851" fill="#E0E0E0" width="79.346" height="1.123"/>
				<rect x="201.363" y="276.792" fill="#E0E0E0" width="79.346" height="1.123"/>
				<rect x="201.363" y="288.732" fill="#E0E0E0" width="79.346" height="1.124"/>
				<rect x="201.363" y="300.674" fill="#E0E0E0" width="79.346" height="1.124"/>
				<rect x="201.363" y="312.615" fill="#E0E0E0" width="79.346" height="1.123"/>
				<rect x="201.363" y="324.557" fill="#E0E0E0" width="79.346" height="1.123"/>
				<rect x="201.363" y="336.498" fill="#E0E0E0" width="79.346" height="1.123"/>
				<rect x="201.363" y="348.439" fill="#E0E0E0" width="79.346" height="1.123"/>
				<rect x="201.363" y="360.38" fill="#E0E0E0" width="79.346" height="1.124"/>
				<rect x="201.363" y="372.321" fill="#E0E0E0" width="79.346" height="1.124"/>
			</g>
			<g>
				<rect x="145.203" y="116.481" fill="#F0F0F0" width="36.871" height="265.917"/>
				<polygon fill="#FAFAFA" points="182.074,116.481 145.203,116.481 158.771,93 211.571,93 				"/>
				<polygon fill="#EBEBEB" points="182.074,116.481 211.571,93 211.571,382.398 182.074,382.398 				"/>
				<rect x="145.203" y="128.871" fill="#E0E0E0" width="66.368" height="1.416"/>
				<rect x="145.203" y="143.923" fill="#E0E0E0" width="66.368" height="1.416"/>
				<rect x="145.203" y="158.975" fill="#E0E0E0" width="66.368" height="1.416"/>
				<rect x="145.203" y="174.026" fill="#E0E0E0" width="66.368" height="1.416"/>
				<rect x="145.203" y="189.078" fill="#E0E0E0" width="66.368" height="1.416"/>
				<rect x="145.203" y="204.129" fill="#E0E0E0" width="66.368" height="1.416"/>
				<rect x="145.203" y="219.181" fill="#E0E0E0" width="66.368" height="1.416"/>
				<rect x="145.203" y="234.232" fill="#E0E0E0" width="66.368" height="1.416"/>
				<rect x="145.203" y="249.284" fill="#E0E0E0" width="66.368" height="1.416"/>
				<rect x="145.203" y="264.336" fill="#E0E0E0" width="66.368" height="1.416"/>
				<rect x="145.203" y="279.388" fill="#E0E0E0" width="66.368" height="1.415"/>
				<rect x="145.203" y="294.438" fill="#E0E0E0" width="66.368" height="1.416"/>
				<rect x="145.203" y="309.49" fill="#E0E0E0" width="66.368" height="1.416"/>
				<rect x="145.203" y="324.542" fill="#E0E0E0" width="66.368" height="1.416"/>
				<rect x="145.203" y="339.594" fill="#E0E0E0" width="66.368" height="1.416"/>
				<rect x="145.203" y="354.646" fill="#E0E0E0" width="66.368" height="1.416"/>
				<rect x="145.203" y="369.697" fill="#E0E0E0" width="66.368" height="1.416"/>
			</g>
			<g>
				<rect x="98.546" y="245.156" fill="#F0F0F0" width="40.249" height="137.242"/>
				<rect x="106.469" y="252.251" fill="#E6E6E6" width="6.46" height="22.027"/>
				<rect x="122.315" y="252.251" fill="#E6E6E6" width="6.459" height="22.027"/>
				<rect x="106.469" y="280.776" fill="#E6E6E6" width="6.46" height="22.026"/>
				<rect x="122.315" y="280.776" fill="#E6E6E6" width="6.459" height="22.026"/>
				<rect x="106.469" y="309.301" fill="#E6E6E6" width="6.46" height="22.027"/>
				<rect x="122.315" y="309.301" fill="#E6E6E6" width="6.459" height="22.027"/>
				<rect x="106.469" y="337.826" fill="#E6E6E6" width="6.46" height="22.026"/>
				<rect x="122.315" y="337.826" fill="#E6E6E6" width="6.459" height="22.026"/>
				<polygon fill="#FFFFFF" points="138.795,245.156 98.546,245.156 107.987,235.648 148.236,235.648 				"/>
				<polygon fill="#E6E6E6" points="138.795,245.156 148.236,235.648 157.677,245.156 157.677,382.398 138.795,382.398 				"/>
			</g>
		</g>
	</g>
</g>
<g id="Background_Simple" display="none">
	<g display="inline">
		<path fill="#407BFF" d="M186.216,195.143c58.876-61.555,47.271-160.678,134.237-96.381c44.253,32.718,89.848,16.036,95.161,61.229
			c3.648,31.025-27.61,90.604-49.053,112.316c-32.301,32.707-66.511,25.058-105.287,19.813c-43.883-5.936-71.09,17.87-112.118,21.27
			c-29.938,2.481-71.565-27.696-64.207-64.938C93.966,202.818,161.129,221.371,186.216,195.143z"/>
		<path opacity="0.9" fill="#FFFFFF" d="M186.216,195.143c58.876-61.555,47.271-160.678,134.237-96.381
			c44.253,32.718,89.848,16.036,95.161,61.229c3.648,31.025-27.61,90.604-49.053,112.316
			c-32.301,32.707-66.511,25.058-105.287,19.813c-43.883-5.936-71.09,17.87-112.118,21.27
			c-29.938,2.481-71.565-27.696-64.207-64.938C93.966,202.818,161.129,221.371,186.216,195.143z"/>
	</g>
</g>
<g id="Shadow_1_">
	<ellipse id="_x3C_Path_x3E__331_" fill="#F5F5F5" cx="250" cy="416.238" rx="193.889" ry="11.323"/>
</g>
<g id="Smartphone">
	<g>
		<path fill="#407BFF" d="M289.416,114.583h127.533c5.13,0,9.289,4.159,9.289,9.289v283.077c0,5.13-4.159,9.289-9.289,9.289H289.416
			c-5.13,0-9.289-4.159-9.289-9.289V123.872C280.127,118.742,284.286,114.583,289.416,114.583z"/>
		<g>
			<path fill="#407BFF" d="M283.642,114.583h127.534c5.13,0,9.289,4.159,9.289,9.289v283.077c0,5.13-4.158,9.289-9.289,9.289
				H283.642c-5.13,0-9.289-4.159-9.289-9.289V123.872C274.353,118.742,278.512,114.583,283.642,114.583z"/>
			<path opacity="0.7" fill="#FFFFFF" d="M283.642,114.583h127.534c5.13,0,9.289,4.159,9.289,9.289v283.077
				c0,5.13-4.158,9.289-9.289,9.289H283.642c-5.13,0-9.289-4.159-9.289-9.289V123.872
				C274.353,118.742,278.512,114.583,283.642,114.583z"/>
		</g>
		<g opacity="0.9">
			<rect x="295.766" y="114.583" fill="#FFFFFF" width="7.908" height="301.655"/>
			<rect x="382.521" y="114.583" fill="#FFFFFF" width="4.851" height="301.655"/>
			<polygon fill="#FFFFFF" points="274.353,180.103 274.353,188.011 420.464,178.955 420.464,171.047 			"/>
			<rect x="274.353" y="366.97" fill="#FFFFFF" width="146.111" height="7.907"/>
			<rect x="274.353" y="219.585" fill="#FFFFFF" width="146.111" height="4.309"/>
			<polygon fill="#FFFFFF" points="274.354,321.562 274.354,330.617 420.465,281.178 420.465,272.122 			"/>
			<polygon fill="#FFFFFF" points="325.559,114.583 317.651,114.583 338.908,416.238 346.816,416.238 			"/>
		</g>
	</g>
</g>
<g id="Car">
	<g>
		<g>
			<path fill="#407BFF" d="M394.994,385.294H221.049v-54.223h153.333l14.306,11.626c3.989,3.242,6.305,8.108,6.305,13.248V385.294z"
				/>
			<path opacity="0.5" d="M394.994,385.294H221.049v-54.223h153.333l14.306,11.626c3.989,3.242,6.305,8.108,6.305,13.248V385.294z"
				/>
		</g>
		<g>
			<path fill="#263238" d="M220.049,380.404c0-19.79,8.972-35.833,20.041-35.833h-21.26c-11.068,0-20.041,16.043-20.041,35.833
				c0,19.791,8.973,35.834,20.041,35.834h21.26C229.021,416.238,220.049,400.195,220.049,380.404z"/>
			<ellipse fill="#263238" cx="240.09" cy="380.404" rx="20.041" ry="35.833"/>
			<ellipse fill="#FFFFFF" cx="241.702" cy="380.404" rx="14.208" ry="27.941"/>
		</g>
		<g>
			<path fill="#263238" d="M104.536,380.404c0-19.79,8.973-35.833,20.041-35.833h-21.26c-11.068,0-20.041,16.043-20.041,35.833
				c0,19.791,8.973,35.834,20.041,35.834h21.26C113.509,416.238,104.536,400.195,104.536,380.404z"/>
			<ellipse fill="#263238" cx="124.577" cy="380.404" rx="20.041" ry="35.833"/>
		</g>
		<g>
			<path fill="#263238" d="M357.383,380.404c0-19.79,8.972-35.833,20.041-35.833h-21.26c-11.068,0-20.041,16.043-20.041,35.833
				c0,19.791,8.973,35.834,20.041,35.834h21.26C366.355,416.238,357.383,400.195,357.383,380.404z"/>
			<ellipse fill="#263238" cx="377.423" cy="380.404" rx="20.041" ry="35.833"/>
			<ellipse fill="#FFFFFF" cx="379.035" cy="380.404" rx="14.208" ry="27.941"/>
		</g>
		<g>
			<path fill="#407BFF" d="M196.366,390.404H170.66l-1.436-1.436c-1.481-1.481-3.491-2.314-5.587-2.314H99.382
				c-2.095,0-4.105,0.833-5.587,2.314l-0.874,0.873h-2.344c-7.622,0-13.802-6.179-13.802-13.802v-21.19h145.828l-11.618,25.223
				C208.793,386.266,202.936,390.404,196.366,390.404z"/>
			<path opacity="0.2" d="M196.366,390.404H170.66l-1.436-1.436c-1.481-1.481-3.491-2.314-5.587-2.314H99.382
				c-2.095,0-4.105,0.833-5.587,2.314l-0.874,0.873h-2.344c-7.622,0-13.802-6.179-13.802-13.802v-21.19h145.828l-11.618,25.223
				C208.793,386.266,202.936,390.404,196.366,390.404z"/>
		</g>
		<path fill="#263238" d="M348.16,264.683c-0.086,0-0.173-0.021-0.252-0.068c-0.238-0.139-0.319-0.445-0.18-0.684l7-12
			c0.139-0.239,0.445-0.32,0.684-0.18c0.238,0.139,0.319,0.445,0.18,0.684l-7,12C348.499,264.594,348.332,264.683,348.16,264.683z"
			/>
		<path fill="#407BFF" d="M385.08,324.377v-13.639c0-7.167-10.419-41-24.752-47.334c-14.333-6.333-49-9.166-70.833-8
			c-21.833,1.167-50.96,46.834-50.96,46.834l3.168,39.277c4.436,0,18.574-1.333,20.647,37.526
			c0.303,5.677,4.97,10.141,10.654,10.141h76.456c5.314,0,9.817-3.903,10.562-9.165c1.96-13.849,7.219-38.508,19.805-38.508
			c8.833,0,15.167,7.562,15.167,16.229l0,0c0-9.524-2.315-18.905-6.747-27.335L385.08,324.377z"/>
		<g>
			<path fill="#407BFF" d="M209.494,255.404c-39.778,0-84.833,46.834-84.833,46.834h113.874c0,0,29.126-45.667,50.96-46.834H209.494
				z"/>
			<path opacity="0.4" fill="#FFFFFF" d="M211.933,255.404c-33.506,0-68.643,33.23-78.889,43.709
				c-1.14,1.165-0.316,3.125,1.314,3.125h91.86c7.484,0,14.535-3.543,18.962-9.577c9.874-13.459,28.909-36.434,44.313-37.257
				H211.933z"/>
		</g>
		<path fill="#407BFF" d="M238.534,302.238l-42.068,33.194l-113.189-0.361c0,0-6.5,9.444-6.5,19.778c7.056,0,137.606,0,145.828,0
			c2.389-6.334,10.764-13.334,19.098-13.334C241.702,329.738,238.534,302.238,238.534,302.238z"/>
		<path opacity="0.2" d="M211.003,325.649c-0.242,0-0.456-0.178-0.493-0.425c-0.042-0.273,0.146-0.528,0.419-0.569
			c12.402-1.88,21.69-7.943,27.299-12.699c3.178-2.692,3.801-7.31,1.45-10.74c-0.156-0.228-0.099-0.538,0.13-0.694
			c0.228-0.156,0.538-0.098,0.694,0.13c2.643,3.854,1.942,9.042-1.628,12.068c-5.707,4.839-15.161,11.009-27.795,12.924
			C211.054,325.647,211.028,325.649,211.003,325.649z"/>
		<path fill="#407BFF" d="M83.276,335.071c0,0,19.884-23.167,41.384-32.833h113.874l-42.068,33.194L83.276,335.071z"/>
		<rect x="96.66" y="335.071" fill="#263238" width="74.667" height="2.167"/>
		<path fill="#FFFFFF" d="M169.781,330.728l4.015-4.015c0.899-0.899,2.039-1.521,3.282-1.792l30.214-6.581
			c1.062-0.23,2.165-0.198,3.211,0.097l1.614,0.454c4.699,1.321,6.414,7.091,3.199,10.764l-6.495,7.422
			c-1.12,1.281-2.69,2.083-4.384,2.239l-29.349,2.719c-1.961,0.183-3.902-0.517-5.298-1.906l0,0
			C167.189,337.536,167.185,333.324,169.781,330.728z"/>
		<path fill="#FFFFFF" d="M98.774,332.849l-3.319-6.187c-0.465-0.868-1.158-1.594-2.002-2.101l0,0
			c-1.631-0.978-3.653-1.035-5.337-0.152l-2.509,1.316c-1.24,0.649-2.183,1.752-2.633,3.078l-1.537,4.529
			c-1.077,3.173,0.935,6.558,4.237,7.128l6.907,1.192c2.312,0.399,4.619-0.724,5.73-2.788l0.459-0.852
			C99.639,336.402,99.64,334.462,98.774,332.849z"/>
		<path opacity="0.4" fill="#FFFFFF" d="M261.794,303.571h105.277c3.836,0,6.576-3.694,5.478-7.37
			c-2.395-8.007-7.011-20.509-13.909-26.89c-0.766-0.709-1.711-1.183-2.732-1.398c-12.408-2.631-32.36-4.382-47.161-5.398
			c-13.576-0.933-26.874,4.121-36.406,13.833c-5.021,5.117-10.436,11.382-15.187,18.532
			C254.685,298.597,257.331,303.571,261.794,303.571z"/>
		<ellipse fill="#263238" cx="186.216" cy="366.571" rx="7.5" ry="5.944"/>
		<path fill="#263238" d="M133.292,330.532c2.461,0,3.662,2.518,2.683,5.622c-0.979,3.105-3.769,5.623-6.229,5.623
			s-3.662-2.518-2.683-5.623C128.042,333.05,130.831,330.532,133.292,330.532z"/>
		<ellipse fill="#263238" cx="80.716" cy="366.571" rx="2.111" ry="5.944"/>
		<path fill="#263238" d="M258.549,302.62v-3.37c0-4.127,3.794-7.212,7.835-6.37l12.819,2.673c3.017,0.629,5.179,3.288,5.179,6.37
			v0.697c0,3.594-2.914,6.507-6.507,6.507h-12.819C261.463,309.127,258.549,306.214,258.549,302.62z"/>
		<path fill="#263238" d="M326.001,263.91c0,0-1.71-0.171-4.694-0.435c13.187,27.013,9.826,40.096,9.826,40.096h10.056
			C341.29,287.127,326.001,263.91,326.001,263.91z"/>
		<path opacity="0.2" fill="#407BFF" d="M214.843,291.483c-0.431,4.399-4.117,7.755-8.538,7.755h-51.821
			c-3.782,0-5.151-4.214-2.416-7.361c5.26-6.05,10.924-11.347,16.06-15.679c9.757-8.216,21.878-12.488,33.207-11.701
			c1.38,0.097,2.815,0.201,4.288,0.313c3.79,0.289,6.94,3.054,7.734,6.771C215.217,280.293,215.291,286.91,214.843,291.483z"/>
		<path opacity="0.2" d="M332.327,382.071c-0.276,0-0.5-0.224-0.5-0.5c0-10.119,5.158-51.847,6.512-58.105
			c1.312-6.07,1.315-12.842,0.009-17.253c-0.078-0.265,0.072-0.543,0.338-0.621c0.264-0.076,0.542,0.073,0.621,0.338
			c1.351,4.559,1.354,11.525,0.009,17.747c-1.348,6.237-6.488,47.813-6.488,57.895C332.827,381.848,332.604,382.071,332.327,382.071
			z"/>
		<path opacity="0.2" d="M331,323.96h-12.194c-1.016,0-1.7-0.831-1.521-1.847l0.25-1.417c0.179-1.016,1.158-1.847,2.174-1.847
			h12.194c1.016,0,1.7,0.831,1.521,1.847l-0.251,1.417C332.994,323.129,332.017,323.96,331,323.96z"/>
	</g>
</g>
<g id="Pin">
	<g>
		<path fill="#407BFF" d="M367.88,172.479h-1c0-2.557-0.367-5.086-1.092-7.517l0.959-0.285
			C367.499,167.2,367.88,169.825,367.88,172.479z M363.567,159.694c-4.666-8.379-13.504-13.584-23.064-13.584v-1
			c9.924,0,19.096,5.402,23.938,14.098L363.567,159.694z"/>
		<path fill="#407BFF" d="M340.502,148.61c-13.181,0-23.867,10.687-23.867,23.868c0,22.989,23.867,38.76,23.867,38.76
			s23.877-15.771,23.877-38.76C364.38,159.297,353.694,148.61,340.502,148.61z M340.502,183.725
			c-6.152,0-11.141-4.989-11.141-11.141c0-6.163,4.989-11.141,11.141-11.141c6.163,0,11.151,4.978,11.151,11.141
			C351.654,178.735,346.665,183.725,340.502,183.725z"/>
	</g>
</g>
<g id="Character_1_">
	<g>
		<polygon fill="#B55B52" points="297.975,414.717 304.012,414.622 305.752,400.622 299.716,400.717 		"/>
		<polygon fill="#B55B52" points="326.798,414.274 332.663,412.477 329.024,399.21 323.159,401.008 		"/>
		<path fill="#263238" d="M332.481,410.721l-6.539,3.374c-0.219,0.113-0.33,0.363-0.268,0.602l1.401,5.314
			c0.145,0.551,0.775,0.818,1.277,0.548c2.085-1.121,3.557-2.037,6.206-3.404c1.63-0.841,6.634-3.209,8.885-4.371
			c2.202-1.136,1.396-3.539,0.371-3.265c-4.599,1.229-8.356,1.589-10.293,1.082C333.173,410.51,332.802,410.555,332.481,410.721z"/>
		<path fill="#263238" d="M304.134,413.924l-6.59,0.104c-0.247,0.004-0.458,0.179-0.507,0.42l-1.108,5.383
			c-0.115,0.559,0.315,1.078,0.885,1.061c2.377-0.078,5.81-0.271,8.798-0.318c3.494-0.055,4.507,0.089,8.604,0.024
			c2.477-0.039,3.125-2.555,2.085-2.765c-4.737-0.959-6.587-1.009-10.706-3.461C305.147,414.105,304.655,413.916,304.134,413.924z"
			/>
		<path fill="#B55B52" d="M313.301,231.055c1.368,2.745,2.914,5.658,4.467,8.424c1.569,2.783,3.192,5.528,4.944,8.124
			c0.449,0.633,0.869,1.304,1.332,1.918l1.123,1.538c0.238,0.302,0.367,0.446,0.4,0.516c0.033,0.066,0.062,0.164,0.352,0.184
			c0.575,0.041,1.781-0.562,2.856-1.398c0.55-0.423,1.105-0.901,1.66-1.407c0.537-0.498,1.095-1.099,1.571-1.577l3.948,2.225
			c-0.359,0.958-0.736,1.734-1.185,2.573c-0.438,0.826-0.941,1.631-1.535,2.415c-0.586,0.792-1.272,1.551-2.104,2.282
			c-0.829,0.729-1.846,1.414-3.168,1.893c-1.301,0.487-2.996,0.649-4.562,0.249c-1.572-0.386-2.868-1.194-3.821-2.042
			c-0.268-0.214-0.458-0.429-0.684-0.647l-0.324-0.33l-0.23-0.26l-0.878-1.007c-0.593-0.669-1.129-1.359-1.69-2.045
			c-2.171-2.771-4.108-5.647-5.901-8.597c-0.881-1.482-1.753-2.967-2.546-4.494c-0.81-1.541-1.581-3.014-2.325-4.691
			L313.301,231.055z"/>
		<g>
			<g>
				<path fill="#407BFF" d="M302.476,231.091c-1.627,5.536,9.829,20.629,9.829,20.629l11.551-7.434c0,0-3.395-7.7-8.004-13.572
					C311.118,224.685,304.262,225.016,302.476,231.091z"/>
			</g>
			<g opacity="0.2">
				<path d="M302.476,231.091c-1.627,5.536,9.829,20.629,9.829,20.629l11.551-7.434c0,0-3.395-7.7-8.004-13.572
					C311.118,224.685,304.262,225.016,302.476,231.091z"/>
			</g>
		</g>
		<path opacity="0.2" d="M309.517,237.59c2.376,1.016,5.872,6.737,7.692,10.978l-4.902,3.15c0,0-4.414-5.812-7.369-11.549
			C306.486,238.47,308.261,237.057,309.517,237.59z"/>
		<path fill="#B55B52" d="M331.322,248.463l4.181-6.761l3.643,5.825c0,0-1.336,2.553-4.025,3.288L331.322,248.463z"/>
		<path fill="#B55B52" d="M341.328,241.774l-0.014,2.091c-0.005,0.65-0.231,1.28-0.642,1.785l-1.526,1.877l-3.643-5.825l3.767-1.377
			C340.273,239.958,341.335,240.706,341.328,241.774z"/>
		<polygon fill="#407BFF" points="337.254,250.412 330.674,250.312 334.314,236.683 340.895,236.783 		"/>
		<polygon fill="#263238" points="337.92,250.412 331.34,250.312 334.981,236.683 341.562,236.783 		"/>
		<polygon opacity="0.2" points="305.751,400.626 304.854,407.842 298.815,407.938 299.711,400.721 		"/>
		<polygon opacity="0.2" points="323.159,401.012 329.026,399.213 330.899,406.053 325.031,407.851 		"/>
		<g>
			<g>
				<path fill="#407BFF" d="M276.955,234.019c4.926,21.225,3.853,42.267,4.395,46.807c4.721-0.343,22.501-1.668,32.193-2.392
					c3.087-34.491-4.229-52-4.229-52s-2.07-0.402-4.885-0.691c-0.883-0.09-1.835-0.17-2.826-0.222
					c-0.548-0.033-1.104-0.051-1.668-0.063c-3.642-0.06-9.589,0.52-13.687,1.021c-0.857,0.106-1.731,0.235-2.576,0.373
					c-0.784,0.134-1.553,0.276-2.278,0.422c-0.033,0.006-0.065,0.013-0.098,0.02C278.217,227.91,276.245,230.959,276.955,234.019z"
					/>
			</g>
			<g opacity="0.2">
				<path d="M276.955,234.019c4.926,21.225,3.853,42.267,4.395,46.807c4.721-0.343,22.501-1.668,32.193-2.392
					c3.087-34.491-4.229-52-4.229-52s-2.07-0.402-4.885-0.691c-0.883-0.09-1.835-0.17-2.826-0.222
					c-0.548-0.033-1.104-0.051-1.668-0.063c-3.642-0.06-9.589,0.52-13.687,1.021c-0.857,0.106-1.731,0.235-2.576,0.373
					c-0.784,0.134-1.553,0.276-2.278,0.422c-0.033,0.006-0.065,0.013-0.098,0.02C278.217,227.91,276.245,230.959,276.955,234.019z"
					/>
			</g>
		</g>
		<path opacity="0.2" d="M282.446,238.48l-3.692,4.752c0.01,0.063,0.02,0.113,0.02,0.175c0.515,3.22,0.916,6.378,1.214,9.412
			C283.516,248.447,282.991,240.559,282.446,238.48z"/>
		<path fill="#B55B52" d="M287.851,217.062c0.77,3.242,0.724,6.843-1.601,9.415c2.57,2.2,5.903,4.717,11.146,4.511
			c5.242-0.205,4.061-3.733,2.539-5.528c-4.479-0.724-4.485-3.632-4.521-6.827c-0.007-0.665-0.44-1.253-1.075-1.456l-4.917-1.578
			C288.504,215.303,287.628,216.124,287.851,217.062z"/>
		<path fill="#407BFF" d="M302.038,251.67c-2.696,0-5.188-3.24-5.676-7.382c-0.3-2.554,0.255-4.907,1.486-6.296
			c0.708-0.798,1.593-1.222,2.56-1.225c0.002,0,0.005,0,0.008,0c2.697,0,5.189,3.24,5.677,7.382
			c0.301,2.554-0.255,4.908-1.487,6.296c-0.708,0.799-1.593,1.223-2.56,1.225C302.044,251.67,302.041,251.67,302.038,251.67z
			 M300.416,237.768c-0.002,0-0.004,0-0.006,0c-0.682,0.002-1.292,0.301-1.813,0.889c-1.029,1.161-1.505,3.274-1.241,5.515
			c0.415,3.524,2.559,6.499,4.683,6.499c0.002,0,0.004,0,0.006,0c0.683-0.002,1.293-0.301,1.813-0.888
			c1.03-1.161,1.506-3.274,1.242-5.516h-0.001C304.685,240.742,302.541,237.768,300.416,237.768z"/>
		<path opacity="0.2" d="M295.417,218.814l-4.948,0.638c0.113,0.216,0.247,0.432,0.381,0.638c0.936,1.502,3.024,2.489,5.143,2.849
			C295.458,221.776,295.437,220.326,295.417,218.814z"/>
		<path fill="#263238" d="M301.836,205.949c2.754,0.465,7.896-2.663,6.696-6.82c-1.543,1.929-6.696,1.285-6.696,1.285V205.949z"/>
		<path fill="#263238" d="M291.097,210.403c0.3,2.776-3.129,7.724-7.207,6.278c2.017-1.426,1.681-6.607,1.681-6.607L291.097,210.403
			z"/>
		<path fill="#B55B52" d="M287.066,204.981c-0.739,5.943-1.474,9.385,0.93,12.957c3.615,5.372,11.372,4.039,13.872-1.564
			c2.251-5.044,3.081-13.917-2.233-17.332C294.399,195.677,287.805,199.037,287.066,204.981z"/>
		<path fill="#263238" d="M286.25,210.957c1.452,1.529,5.44-4.714,4.711-6.942c1.5,0.65,4.381-0.601,4.2-3.086
			c4.492,2.4,10.994,4.303,11.1-0.043c0.106-4.346-4.001-7.543-8.021-7.886c0.479,1.285-0.79,1.843-3.396,1.285
			c-2.606-0.557-12.676-5.174-11.561,4.072C279.544,198.605,279.046,203.371,286.25,210.957z"/>
		<path fill="#B55B52" d="M283.309,208.694c0.209,1.602,1.139,2.957,2.204,3.749c1.602,1.19,2.596-0.072,2.748-1.957
			c0.137-1.697-0.013-4.36-1.908-4.808C284.485,205.237,283.069,206.863,283.309,208.694z"/>
		<path fill="#263238" d="M292.379,280.01l21.163-1.573c0,0,2.734,43.429,2.528,61.848c-0.211,19.151-8.972,66.129-8.972,66.129
			l-10.218,0.155c0,0,0.805-45.563,0.805-64.369C297.686,316.868,292.379,280.01,292.379,280.01"/>
		<path opacity="0.2" d="M300.56,325.149c0.277,1.255,8.146,36.463,10.687,57.024c1.358-8.548,2.746-18.134,3.683-26.599
			L300.56,325.149z"/>
		<path fill="#263238" d="M302.124,279.285c0,0,16.102,39.465,19.738,56.771c3.982,18.951,10.344,66.881,10.344,66.881
			l-10.922,1.708c0,0-8.278-35.831-12.901-54.139c-5.267-20.853-26.121-53.889-27.031-69.675
			C302.124,279.285,302.124,279.285,302.124,279.285z"/>
		<polygon fill="#407BFF" points="333.582,403.867 320.003,407.046 318.293,401.821 333.115,399.278 		"/>
		<polygon fill="#407BFF" points="308.386,406.631 296.209,406.821 296.147,402.888 309.755,402.467 		"/>
		
			<ellipse transform="matrix(-0.9829 -0.1839 0.1839 -0.9829 548.4975 467.2343)" fill="#263238" cx="295.912" cy="208.186" rx="0.576" ry="0.881"/>
		
			<ellipse transform="matrix(-0.9829 -0.1839 0.1839 -0.9829 560.0132 470.8139)" fill="#263238" cx="301.836" cy="209.442" rx="0.576" ry="0.882"/>
		<path fill="#A02724" d="M299.316,209.221c0,0,0.571,2.964,1.52,4.52c-0.994,0.632-2.366,0.002-2.366,0.002L299.316,209.221z"/>
		<path fill="#263238" d="M297.456,215.211c-1.822-0.414-2.563-1.771-2.597-1.835c-0.037-0.069-0.011-0.155,0.059-0.192
			s0.156-0.011,0.193,0.059c0.008,0.016,0.875,1.592,2.997,1.782c0.079,0.008,0.136,0.077,0.129,0.155s-0.076,0.137-0.155,0.13
			C297.861,215.289,297.652,215.256,297.456,215.211z"/>
		<path fill="#263238" d="M294.756,205.936c-0.045-0.016-0.087-0.042-0.121-0.079c-0.106-0.117-0.098-0.298,0.019-0.404
			c1.169-1.064,2.451-0.745,2.504-0.731c0.153,0.04,0.245,0.196,0.205,0.349c-0.04,0.152-0.195,0.244-0.347,0.205l0,0
			c-0.042-0.011-1.043-0.249-1.978,0.601C294.959,205.947,294.851,205.967,294.756,205.936z"/>
		<path fill="#263238" d="M304.459,207.848c-0.088-0.028-0.16-0.1-0.187-0.195c-0.333-1.218-1.306-1.554-1.347-1.567
			c-0.149-0.05-0.231-0.21-0.182-0.36c0.049-0.149,0.208-0.231,0.358-0.184c0.054,0.019,1.305,0.435,1.723,1.96
			c0.042,0.152-0.048,0.31-0.2,0.352C304.567,207.868,304.511,207.865,304.459,207.848z"/>
		<g>
			<path fill="#407BFF" d="M334.739,410.742c-0.496,0.256-1.084,0.429-1.503,0.531c-0.056,0.014-0.115-0.008-0.149-0.054
				s-0.037-0.108-0.008-0.158c0.132-0.223,1.314-2.179,2.064-2.18c0.116,0,0.281,0.042,0.403,0.247
				c0.164,0.274,0.192,0.546,0.083,0.807C335.493,410.265,335.147,410.531,334.739,410.742z M333.512,410.904
				c1.005-0.287,1.688-0.682,1.854-1.079c0.073-0.175,0.051-0.354-0.065-0.55c-0.057-0.096-0.114-0.107-0.158-0.107
				C334.754,409.168,334.005,410.136,333.512,410.904z"/>
			<path fill="#407BFF" d="M333.268,411.262c-0.024,0.013-0.052,0.018-0.08,0.016c-0.052-0.006-0.097-0.039-0.118-0.088
				c-0.029-0.067-0.699-1.682-0.339-2.512c0.094-0.217,0.248-0.365,0.457-0.443l0,0c0.323-0.119,0.5,0.027,0.576,0.125
				c0.422,0.539-0.045,2.268-0.444,2.855C333.307,411.235,333.288,411.251,333.268,411.262z M333.229,408.529
				c-0.104,0.054-0.182,0.14-0.234,0.262c-0.231,0.532,0.063,1.522,0.233,2.007c0.336-0.703,0.561-1.943,0.312-2.263
				c-0.022-0.029-0.076-0.097-0.251-0.032l0,0C333.267,408.511,333.247,408.52,333.229,408.529z"/>
			<path fill="#407BFF" d="M304.741,414.749c-0.051-0.017-0.088-0.061-0.097-0.114c-0.01-0.06,0.02-0.119,0.073-0.147
				c0.272-0.146,2.679-1.414,3.418-1.018c0.143,0.077,0.227,0.207,0.242,0.377l0,0c0.026,0.284-0.061,0.521-0.257,0.699
				c-0.652,0.597-2.386,0.386-3.361,0.208C304.753,414.752,304.747,414.751,304.741,414.749z M307.948,413.7
				c-0.457-0.15-1.765,0.371-2.715,0.843c1.336,0.2,2.328,0.127,2.695-0.208c0.128-0.117,0.183-0.269,0.165-0.462
				c-0.007-0.075-0.035-0.12-0.092-0.151C307.985,413.713,307.967,413.706,307.948,413.7z"/>
			<path fill="#407BFF" d="M304.741,414.749c-0.013-0.005-0.025-0.011-0.037-0.019c-0.042-0.029-0.065-0.078-0.061-0.129
				c0.005-0.069,0.143-1.697,0.9-2.339c0.231-0.196,0.496-0.283,0.789-0.258l0,0c0.394,0.033,0.51,0.231,0.539,0.391
				c0.121,0.681-1.302,2.009-2.025,2.347C304.813,414.758,304.775,414.76,304.741,414.749z M306.455,412.316
				c-0.037-0.012-0.085-0.021-0.146-0.027l0,0c-0.216-0.018-0.406,0.045-0.58,0.191c-0.498,0.422-0.697,1.397-0.768,1.873
				c0.736-0.458,1.701-1.499,1.629-1.907C306.585,412.421,306.573,412.356,306.455,412.316z M306.32,412.147l0.003,0.001
				L306.32,412.147z"/>
		</g>
		<g>
			<path fill="#B55B52" d="M286.611,235.878c-1.994,3.552-3.998,7.342-5.796,11.069c-1.817,3.74-3.468,7.543-4.657,11.286
				c-0.148,0.466-0.259,0.924-0.393,1.388c-0.057,0.21-0.147,0.509-0.177,0.647c-0.017,0.118-0.066,0.224-0.081,0.354
				c-0.082,0.501-0.075,1.151,0.058,1.887c0.28,1.479,1.021,3.198,1.949,4.87c1.892,3.352,4.525,6.728,7.216,9.788l-2.896,3.484
				c-3.829-2.604-7.21-5.549-10.182-9.355c-1.446-1.927-2.815-4.05-3.673-6.757c-0.422-1.351-0.708-2.873-0.628-4.53
				c0.012-0.409,0.077-0.836,0.127-1.253c0.056-0.395,0.115-0.617,0.173-0.935c0.121-0.587,0.227-1.188,0.363-1.766
				c1.105-4.6,2.725-8.835,4.539-12.938c1.842-4.115,3.847-7.999,6.199-11.923L286.611,235.878z"/>
			<g>
				<g>
					<path fill="#407BFF" d="M280.327,227.693c-5.565,1.524-11.032,17.175-11.032,17.175l13.401,3.718c0,0,2.954-3.739,5.578-10.72
						C291.133,230.262,287.068,225.848,280.327,227.693z"/>
				</g>
				<g opacity="0.2">
					<path d="M280.327,227.693c-5.565,1.524-11.032,17.175-11.032,17.175l13.401,3.718c0,0,2.954-3.739,5.578-10.72
						C291.133,230.262,287.068,225.848,280.327,227.693z"/>
				</g>
			</g>
			<path fill="#B55B52" d="M282.162,276.139l6.115,1.61l-2.428,5.754c0,0-5.493-1.164-5.456-4.157L282.162,276.139z"/>
			<polygon fill="#B55B52" points="290.628,281.653 288.822,286.199 285.85,283.503 288.277,277.749 			"/>
		</g>
	</g>
</g>
</svg>
